M48
;GenerationSoftware,Autodesk,EAGLE,9.6.2*%
;CreationDate,2022-03-17T17:24:38Z*%
FMAT,2
ICI,OFF
METRIC,TZ,000.000
T7C0.350
T6C0.500
T5C0.600
T4C0.700
T3C1.016
T2C1.100
T1C3.200
%
G90
M71
T1
X2540Y86360
X71120Y86360
X71120Y2540
X2540Y2540
T2
X61976Y38481
X32766Y38481
X47371Y75311
X47371Y1651
T3
X71628Y52705
X71628Y55245
X71628Y57785
X71628Y60325
X20701Y2286
X23241Y2286
X25781Y2286
X28321Y2286
T4
X10117Y84037
X14267Y84037
T5
X34862Y4191
X64008Y70485
X68453Y63309
X18161Y74613
X56896Y72771
X56896Y71628
X65913Y75311
X67183Y75311
X3238Y80518
X1968Y80582
X30226Y86614
X22987Y44958
X18923Y19050
X3683Y52451
X27686Y43434
X21400Y20955
X34290Y86360
X23622Y67818
X26670Y66802
X17463Y1524
X7175Y75502
X6095Y65150
X3659Y48516
X18796Y12065
X23622Y16891
X30099Y40005
X52451Y49784
X54483Y67437
X2794Y22098
X7874Y46228
X3556Y23368
X12446Y43688
X19558Y31623
X25273Y31750
X36195Y73025
X18034Y3175
X23114Y40069
X26035Y29083
X69469Y15621
X22606Y8509
X13335Y18923
X16129Y38608
X10414Y55753
X38164Y22476
X41021Y8829
X29718Y53340
X29845Y65659
X10097Y73089
X29464Y43180
X27241Y20765
X23749Y20828
X29337Y56261
X21082Y34798
X23622Y29337
X20066Y28702
X20066Y20955
X48006Y77343
X45974Y77851
X45974Y80264
X24638Y85344
X53594Y61722
X27178Y59182
X13462Y30480
X10973Y52068
X4497Y58545
X14224Y14478
X10541Y62992
X4445Y68834
X5715Y68834
X10414Y38608
X8636Y31623
X46355Y44704
X40005Y45974
X50038Y61912
X38354Y64770
X45466Y68707
X52070Y72136
X50800Y72136
X37592Y73025
X54483Y77089
X55880Y77089
X47498Y3810
X53213Y54229
X34735Y63627
T6
X16383Y26416
X43371Y32448
X9398Y2540
X7747Y2540
X12065Y32258
X12065Y34036
X45085Y33401
X36449Y32512
X57531Y54483
X34227Y9652
X12446Y39751
X5842Y47498
X11049Y7620
X8008Y61468
X12827Y62865
X4953Y17526
X10795Y15240
X3175Y54737
X12255Y66294
X28829Y49403
X48641Y52324
X29464Y27559
X35433Y14097
X5715Y23495
X15875Y30353
X22860Y28067
X49149Y72517
X1905Y47879
X15875Y34163
X34608Y29972
X35370Y27051
X34925Y18352
X35687Y25971
X23622Y36576
X28956Y35941
X31464Y35306
X7620Y23495
X35592Y28829
X13596Y12700
X35560Y16510
X33147Y82677
X51308Y66040
X34862Y67628
X8763Y21209
X16894Y24384
X1651Y15049
X1651Y38545
X23114Y81407
X28448Y86360
X28448Y81407
X31242Y66802
X31242Y60452
X38227Y66929
X59182Y51943
X57404Y77153
X27178Y54483
X23114Y25019
X71882Y17424
X72369Y37146
X71018Y71806
X27073Y24361
X72369Y46355
X71501Y65786
X26035Y22098
X24511Y22225
X27940Y29718
X29337Y17907
X58864Y63373
X34100Y60896
X68834Y69698
X57785Y51765
X57531Y30302
X29083Y72263
X27305Y48006
X50165Y58166
X38799Y55816
X63754Y60325
X56388Y60579
X43561Y60579
X45593Y30226
X40640Y41402
X50800Y41656
X52705Y28956
X46990Y28194
X52578Y27432
X45085Y36195
X56134Y25248
X59880Y21336
X69850Y18161
X57023Y24486
X42545Y39878
X43942Y26416
X59309Y19431
X46355Y12573
X52832Y16764
X56007Y14478
X59055Y59563
X72136Y13716
X72517Y48260
X63754Y58229
X56007Y3810
X31242Y29972
X57404Y12700
X46609Y21463
X56769Y41275
X69406Y48831
X59690Y8128
X69596Y12700
X58420Y14605
X55372Y16891
X48387Y11176
X46355Y11176
X40259Y27178
X37846Y26924
X38926Y31686
X46355Y19558
X54610Y58928
X21463Y12446
X26416Y17145
X63881Y81788
X68453Y35687
X47879Y49911
X55499Y8382
X54229Y19685
X54229Y10795
X54229Y16256
X37211Y45593
X51181Y63119
X51181Y54737
X9596Y12700
X43561Y78613
X22415Y50990
X22733Y38354
X46355Y56261
X49530Y4699
X36830Y37211
X35306Y31115
X50800Y33020
X50165Y16764
X48133Y22225
X44831Y82423
X35814Y60833
X35814Y57531
X34227Y11493
X57404Y6032
X43434Y23050
X40005Y18987
X11596Y12700
X45847Y27559
X44450Y29591
X44069Y43815
X41762Y31863
X42367Y37744
X59182Y11938
X39497Y24765
X20955Y83820
X23876Y76010
X37592Y48133
X42799Y48133
X46101Y41656
X42672Y25146
X34671Y34671
X24003Y47244
X25019Y37211
X28575Y37211
X25734Y47244
X29845Y38227
X25527Y38227
X25781Y47244
X47752Y48641
X48768Y42926
X28702Y41402
X31242Y50292
X53784Y51308
X25019Y20193
X63754Y52705
X65786Y61341
X65786Y68580
X53721Y52959
T7
X34227Y15875
X38100Y12382
M30