G04 EAGLE Gerber RS-274X export*
G75*
%MOMM*%
%FSLAX34Y34*%
%LPD*%
%IN*%
%IPPOS*%
%AMOC8*
5,1,8,0,0,1.08239X$1,22.5*%
G01*
%ADD10C,0.000000*%
%ADD11C,0.254000*%
%ADD12C,0.254000*%


D10*
X9400Y25400D02*
X9405Y25793D01*
X9419Y26185D01*
X9443Y26577D01*
X9477Y26968D01*
X9520Y27359D01*
X9573Y27748D01*
X9636Y28135D01*
X9707Y28521D01*
X9789Y28906D01*
X9879Y29288D01*
X9980Y29667D01*
X10089Y30045D01*
X10208Y30419D01*
X10335Y30790D01*
X10472Y31158D01*
X10618Y31523D01*
X10773Y31884D01*
X10936Y32241D01*
X11108Y32594D01*
X11289Y32942D01*
X11479Y33286D01*
X11676Y33626D01*
X11882Y33960D01*
X12096Y34289D01*
X12319Y34613D01*
X12549Y34931D01*
X12786Y35244D01*
X13032Y35550D01*
X13285Y35851D01*
X13545Y36145D01*
X13812Y36433D01*
X14086Y36714D01*
X14367Y36988D01*
X14655Y37255D01*
X14949Y37515D01*
X15250Y37768D01*
X15556Y38014D01*
X15869Y38251D01*
X16187Y38481D01*
X16511Y38704D01*
X16840Y38918D01*
X17174Y39124D01*
X17514Y39321D01*
X17858Y39511D01*
X18206Y39692D01*
X18559Y39864D01*
X18916Y40027D01*
X19277Y40182D01*
X19642Y40328D01*
X20010Y40465D01*
X20381Y40592D01*
X20755Y40711D01*
X21133Y40820D01*
X21512Y40921D01*
X21894Y41011D01*
X22279Y41093D01*
X22665Y41164D01*
X23052Y41227D01*
X23441Y41280D01*
X23832Y41323D01*
X24223Y41357D01*
X24615Y41381D01*
X25007Y41395D01*
X25400Y41400D01*
X25793Y41395D01*
X26185Y41381D01*
X26577Y41357D01*
X26968Y41323D01*
X27359Y41280D01*
X27748Y41227D01*
X28135Y41164D01*
X28521Y41093D01*
X28906Y41011D01*
X29288Y40921D01*
X29667Y40820D01*
X30045Y40711D01*
X30419Y40592D01*
X30790Y40465D01*
X31158Y40328D01*
X31523Y40182D01*
X31884Y40027D01*
X32241Y39864D01*
X32594Y39692D01*
X32942Y39511D01*
X33286Y39321D01*
X33626Y39124D01*
X33960Y38918D01*
X34289Y38704D01*
X34613Y38481D01*
X34931Y38251D01*
X35244Y38014D01*
X35550Y37768D01*
X35851Y37515D01*
X36145Y37255D01*
X36433Y36988D01*
X36714Y36714D01*
X36988Y36433D01*
X37255Y36145D01*
X37515Y35851D01*
X37768Y35550D01*
X38014Y35244D01*
X38251Y34931D01*
X38481Y34613D01*
X38704Y34289D01*
X38918Y33960D01*
X39124Y33626D01*
X39321Y33286D01*
X39511Y32942D01*
X39692Y32594D01*
X39864Y32241D01*
X40027Y31884D01*
X40182Y31523D01*
X40328Y31158D01*
X40465Y30790D01*
X40592Y30419D01*
X40711Y30045D01*
X40820Y29667D01*
X40921Y29288D01*
X41011Y28906D01*
X41093Y28521D01*
X41164Y28135D01*
X41227Y27748D01*
X41280Y27359D01*
X41323Y26968D01*
X41357Y26577D01*
X41381Y26185D01*
X41395Y25793D01*
X41400Y25400D01*
X41395Y25007D01*
X41381Y24615D01*
X41357Y24223D01*
X41323Y23832D01*
X41280Y23441D01*
X41227Y23052D01*
X41164Y22665D01*
X41093Y22279D01*
X41011Y21894D01*
X40921Y21512D01*
X40820Y21133D01*
X40711Y20755D01*
X40592Y20381D01*
X40465Y20010D01*
X40328Y19642D01*
X40182Y19277D01*
X40027Y18916D01*
X39864Y18559D01*
X39692Y18206D01*
X39511Y17858D01*
X39321Y17514D01*
X39124Y17174D01*
X38918Y16840D01*
X38704Y16511D01*
X38481Y16187D01*
X38251Y15869D01*
X38014Y15556D01*
X37768Y15250D01*
X37515Y14949D01*
X37255Y14655D01*
X36988Y14367D01*
X36714Y14086D01*
X36433Y13812D01*
X36145Y13545D01*
X35851Y13285D01*
X35550Y13032D01*
X35244Y12786D01*
X34931Y12549D01*
X34613Y12319D01*
X34289Y12096D01*
X33960Y11882D01*
X33626Y11676D01*
X33286Y11479D01*
X32942Y11289D01*
X32594Y11108D01*
X32241Y10936D01*
X31884Y10773D01*
X31523Y10618D01*
X31158Y10472D01*
X30790Y10335D01*
X30419Y10208D01*
X30045Y10089D01*
X29667Y9980D01*
X29288Y9879D01*
X28906Y9789D01*
X28521Y9707D01*
X28135Y9636D01*
X27748Y9573D01*
X27359Y9520D01*
X26968Y9477D01*
X26577Y9443D01*
X26185Y9419D01*
X25793Y9405D01*
X25400Y9400D01*
X25007Y9405D01*
X24615Y9419D01*
X24223Y9443D01*
X23832Y9477D01*
X23441Y9520D01*
X23052Y9573D01*
X22665Y9636D01*
X22279Y9707D01*
X21894Y9789D01*
X21512Y9879D01*
X21133Y9980D01*
X20755Y10089D01*
X20381Y10208D01*
X20010Y10335D01*
X19642Y10472D01*
X19277Y10618D01*
X18916Y10773D01*
X18559Y10936D01*
X18206Y11108D01*
X17858Y11289D01*
X17514Y11479D01*
X17174Y11676D01*
X16840Y11882D01*
X16511Y12096D01*
X16187Y12319D01*
X15869Y12549D01*
X15556Y12786D01*
X15250Y13032D01*
X14949Y13285D01*
X14655Y13545D01*
X14367Y13812D01*
X14086Y14086D01*
X13812Y14367D01*
X13545Y14655D01*
X13285Y14949D01*
X13032Y15250D01*
X12786Y15556D01*
X12549Y15869D01*
X12319Y16187D01*
X12096Y16511D01*
X11882Y16840D01*
X11676Y17174D01*
X11479Y17514D01*
X11289Y17858D01*
X11108Y18206D01*
X10936Y18559D01*
X10773Y18916D01*
X10618Y19277D01*
X10472Y19642D01*
X10335Y20010D01*
X10208Y20381D01*
X10089Y20755D01*
X9980Y21133D01*
X9879Y21512D01*
X9789Y21894D01*
X9707Y22279D01*
X9636Y22665D01*
X9573Y23052D01*
X9520Y23441D01*
X9477Y23832D01*
X9443Y24223D01*
X9419Y24615D01*
X9405Y25007D01*
X9400Y25400D01*
X695200Y25400D02*
X695205Y25793D01*
X695219Y26185D01*
X695243Y26577D01*
X695277Y26968D01*
X695320Y27359D01*
X695373Y27748D01*
X695436Y28135D01*
X695507Y28521D01*
X695589Y28906D01*
X695679Y29288D01*
X695780Y29667D01*
X695889Y30045D01*
X696008Y30419D01*
X696135Y30790D01*
X696272Y31158D01*
X696418Y31523D01*
X696573Y31884D01*
X696736Y32241D01*
X696908Y32594D01*
X697089Y32942D01*
X697279Y33286D01*
X697476Y33626D01*
X697682Y33960D01*
X697896Y34289D01*
X698119Y34613D01*
X698349Y34931D01*
X698586Y35244D01*
X698832Y35550D01*
X699085Y35851D01*
X699345Y36145D01*
X699612Y36433D01*
X699886Y36714D01*
X700167Y36988D01*
X700455Y37255D01*
X700749Y37515D01*
X701050Y37768D01*
X701356Y38014D01*
X701669Y38251D01*
X701987Y38481D01*
X702311Y38704D01*
X702640Y38918D01*
X702974Y39124D01*
X703314Y39321D01*
X703658Y39511D01*
X704006Y39692D01*
X704359Y39864D01*
X704716Y40027D01*
X705077Y40182D01*
X705442Y40328D01*
X705810Y40465D01*
X706181Y40592D01*
X706555Y40711D01*
X706933Y40820D01*
X707312Y40921D01*
X707694Y41011D01*
X708079Y41093D01*
X708465Y41164D01*
X708852Y41227D01*
X709241Y41280D01*
X709632Y41323D01*
X710023Y41357D01*
X710415Y41381D01*
X710807Y41395D01*
X711200Y41400D01*
X711593Y41395D01*
X711985Y41381D01*
X712377Y41357D01*
X712768Y41323D01*
X713159Y41280D01*
X713548Y41227D01*
X713935Y41164D01*
X714321Y41093D01*
X714706Y41011D01*
X715088Y40921D01*
X715467Y40820D01*
X715845Y40711D01*
X716219Y40592D01*
X716590Y40465D01*
X716958Y40328D01*
X717323Y40182D01*
X717684Y40027D01*
X718041Y39864D01*
X718394Y39692D01*
X718742Y39511D01*
X719086Y39321D01*
X719426Y39124D01*
X719760Y38918D01*
X720089Y38704D01*
X720413Y38481D01*
X720731Y38251D01*
X721044Y38014D01*
X721350Y37768D01*
X721651Y37515D01*
X721945Y37255D01*
X722233Y36988D01*
X722514Y36714D01*
X722788Y36433D01*
X723055Y36145D01*
X723315Y35851D01*
X723568Y35550D01*
X723814Y35244D01*
X724051Y34931D01*
X724281Y34613D01*
X724504Y34289D01*
X724718Y33960D01*
X724924Y33626D01*
X725121Y33286D01*
X725311Y32942D01*
X725492Y32594D01*
X725664Y32241D01*
X725827Y31884D01*
X725982Y31523D01*
X726128Y31158D01*
X726265Y30790D01*
X726392Y30419D01*
X726511Y30045D01*
X726620Y29667D01*
X726721Y29288D01*
X726811Y28906D01*
X726893Y28521D01*
X726964Y28135D01*
X727027Y27748D01*
X727080Y27359D01*
X727123Y26968D01*
X727157Y26577D01*
X727181Y26185D01*
X727195Y25793D01*
X727200Y25400D01*
X727195Y25007D01*
X727181Y24615D01*
X727157Y24223D01*
X727123Y23832D01*
X727080Y23441D01*
X727027Y23052D01*
X726964Y22665D01*
X726893Y22279D01*
X726811Y21894D01*
X726721Y21512D01*
X726620Y21133D01*
X726511Y20755D01*
X726392Y20381D01*
X726265Y20010D01*
X726128Y19642D01*
X725982Y19277D01*
X725827Y18916D01*
X725664Y18559D01*
X725492Y18206D01*
X725311Y17858D01*
X725121Y17514D01*
X724924Y17174D01*
X724718Y16840D01*
X724504Y16511D01*
X724281Y16187D01*
X724051Y15869D01*
X723814Y15556D01*
X723568Y15250D01*
X723315Y14949D01*
X723055Y14655D01*
X722788Y14367D01*
X722514Y14086D01*
X722233Y13812D01*
X721945Y13545D01*
X721651Y13285D01*
X721350Y13032D01*
X721044Y12786D01*
X720731Y12549D01*
X720413Y12319D01*
X720089Y12096D01*
X719760Y11882D01*
X719426Y11676D01*
X719086Y11479D01*
X718742Y11289D01*
X718394Y11108D01*
X718041Y10936D01*
X717684Y10773D01*
X717323Y10618D01*
X716958Y10472D01*
X716590Y10335D01*
X716219Y10208D01*
X715845Y10089D01*
X715467Y9980D01*
X715088Y9879D01*
X714706Y9789D01*
X714321Y9707D01*
X713935Y9636D01*
X713548Y9573D01*
X713159Y9520D01*
X712768Y9477D01*
X712377Y9443D01*
X711985Y9419D01*
X711593Y9405D01*
X711200Y9400D01*
X710807Y9405D01*
X710415Y9419D01*
X710023Y9443D01*
X709632Y9477D01*
X709241Y9520D01*
X708852Y9573D01*
X708465Y9636D01*
X708079Y9707D01*
X707694Y9789D01*
X707312Y9879D01*
X706933Y9980D01*
X706555Y10089D01*
X706181Y10208D01*
X705810Y10335D01*
X705442Y10472D01*
X705077Y10618D01*
X704716Y10773D01*
X704359Y10936D01*
X704006Y11108D01*
X703658Y11289D01*
X703314Y11479D01*
X702974Y11676D01*
X702640Y11882D01*
X702311Y12096D01*
X701987Y12319D01*
X701669Y12549D01*
X701356Y12786D01*
X701050Y13032D01*
X700749Y13285D01*
X700455Y13545D01*
X700167Y13812D01*
X699886Y14086D01*
X699612Y14367D01*
X699345Y14655D01*
X699085Y14949D01*
X698832Y15250D01*
X698586Y15556D01*
X698349Y15869D01*
X698119Y16187D01*
X697896Y16511D01*
X697682Y16840D01*
X697476Y17174D01*
X697279Y17514D01*
X697089Y17858D01*
X696908Y18206D01*
X696736Y18559D01*
X696573Y18916D01*
X696418Y19277D01*
X696272Y19642D01*
X696135Y20010D01*
X696008Y20381D01*
X695889Y20755D01*
X695780Y21133D01*
X695679Y21512D01*
X695589Y21894D01*
X695507Y22279D01*
X695436Y22665D01*
X695373Y23052D01*
X695320Y23441D01*
X695277Y23832D01*
X695243Y24223D01*
X695219Y24615D01*
X695205Y25007D01*
X695200Y25400D01*
X695200Y863600D02*
X695205Y863993D01*
X695219Y864385D01*
X695243Y864777D01*
X695277Y865168D01*
X695320Y865559D01*
X695373Y865948D01*
X695436Y866335D01*
X695507Y866721D01*
X695589Y867106D01*
X695679Y867488D01*
X695780Y867867D01*
X695889Y868245D01*
X696008Y868619D01*
X696135Y868990D01*
X696272Y869358D01*
X696418Y869723D01*
X696573Y870084D01*
X696736Y870441D01*
X696908Y870794D01*
X697089Y871142D01*
X697279Y871486D01*
X697476Y871826D01*
X697682Y872160D01*
X697896Y872489D01*
X698119Y872813D01*
X698349Y873131D01*
X698586Y873444D01*
X698832Y873750D01*
X699085Y874051D01*
X699345Y874345D01*
X699612Y874633D01*
X699886Y874914D01*
X700167Y875188D01*
X700455Y875455D01*
X700749Y875715D01*
X701050Y875968D01*
X701356Y876214D01*
X701669Y876451D01*
X701987Y876681D01*
X702311Y876904D01*
X702640Y877118D01*
X702974Y877324D01*
X703314Y877521D01*
X703658Y877711D01*
X704006Y877892D01*
X704359Y878064D01*
X704716Y878227D01*
X705077Y878382D01*
X705442Y878528D01*
X705810Y878665D01*
X706181Y878792D01*
X706555Y878911D01*
X706933Y879020D01*
X707312Y879121D01*
X707694Y879211D01*
X708079Y879293D01*
X708465Y879364D01*
X708852Y879427D01*
X709241Y879480D01*
X709632Y879523D01*
X710023Y879557D01*
X710415Y879581D01*
X710807Y879595D01*
X711200Y879600D01*
X711593Y879595D01*
X711985Y879581D01*
X712377Y879557D01*
X712768Y879523D01*
X713159Y879480D01*
X713548Y879427D01*
X713935Y879364D01*
X714321Y879293D01*
X714706Y879211D01*
X715088Y879121D01*
X715467Y879020D01*
X715845Y878911D01*
X716219Y878792D01*
X716590Y878665D01*
X716958Y878528D01*
X717323Y878382D01*
X717684Y878227D01*
X718041Y878064D01*
X718394Y877892D01*
X718742Y877711D01*
X719086Y877521D01*
X719426Y877324D01*
X719760Y877118D01*
X720089Y876904D01*
X720413Y876681D01*
X720731Y876451D01*
X721044Y876214D01*
X721350Y875968D01*
X721651Y875715D01*
X721945Y875455D01*
X722233Y875188D01*
X722514Y874914D01*
X722788Y874633D01*
X723055Y874345D01*
X723315Y874051D01*
X723568Y873750D01*
X723814Y873444D01*
X724051Y873131D01*
X724281Y872813D01*
X724504Y872489D01*
X724718Y872160D01*
X724924Y871826D01*
X725121Y871486D01*
X725311Y871142D01*
X725492Y870794D01*
X725664Y870441D01*
X725827Y870084D01*
X725982Y869723D01*
X726128Y869358D01*
X726265Y868990D01*
X726392Y868619D01*
X726511Y868245D01*
X726620Y867867D01*
X726721Y867488D01*
X726811Y867106D01*
X726893Y866721D01*
X726964Y866335D01*
X727027Y865948D01*
X727080Y865559D01*
X727123Y865168D01*
X727157Y864777D01*
X727181Y864385D01*
X727195Y863993D01*
X727200Y863600D01*
X727195Y863207D01*
X727181Y862815D01*
X727157Y862423D01*
X727123Y862032D01*
X727080Y861641D01*
X727027Y861252D01*
X726964Y860865D01*
X726893Y860479D01*
X726811Y860094D01*
X726721Y859712D01*
X726620Y859333D01*
X726511Y858955D01*
X726392Y858581D01*
X726265Y858210D01*
X726128Y857842D01*
X725982Y857477D01*
X725827Y857116D01*
X725664Y856759D01*
X725492Y856406D01*
X725311Y856058D01*
X725121Y855714D01*
X724924Y855374D01*
X724718Y855040D01*
X724504Y854711D01*
X724281Y854387D01*
X724051Y854069D01*
X723814Y853756D01*
X723568Y853450D01*
X723315Y853149D01*
X723055Y852855D01*
X722788Y852567D01*
X722514Y852286D01*
X722233Y852012D01*
X721945Y851745D01*
X721651Y851485D01*
X721350Y851232D01*
X721044Y850986D01*
X720731Y850749D01*
X720413Y850519D01*
X720089Y850296D01*
X719760Y850082D01*
X719426Y849876D01*
X719086Y849679D01*
X718742Y849489D01*
X718394Y849308D01*
X718041Y849136D01*
X717684Y848973D01*
X717323Y848818D01*
X716958Y848672D01*
X716590Y848535D01*
X716219Y848408D01*
X715845Y848289D01*
X715467Y848180D01*
X715088Y848079D01*
X714706Y847989D01*
X714321Y847907D01*
X713935Y847836D01*
X713548Y847773D01*
X713159Y847720D01*
X712768Y847677D01*
X712377Y847643D01*
X711985Y847619D01*
X711593Y847605D01*
X711200Y847600D01*
X710807Y847605D01*
X710415Y847619D01*
X710023Y847643D01*
X709632Y847677D01*
X709241Y847720D01*
X708852Y847773D01*
X708465Y847836D01*
X708079Y847907D01*
X707694Y847989D01*
X707312Y848079D01*
X706933Y848180D01*
X706555Y848289D01*
X706181Y848408D01*
X705810Y848535D01*
X705442Y848672D01*
X705077Y848818D01*
X704716Y848973D01*
X704359Y849136D01*
X704006Y849308D01*
X703658Y849489D01*
X703314Y849679D01*
X702974Y849876D01*
X702640Y850082D01*
X702311Y850296D01*
X701987Y850519D01*
X701669Y850749D01*
X701356Y850986D01*
X701050Y851232D01*
X700749Y851485D01*
X700455Y851745D01*
X700167Y852012D01*
X699886Y852286D01*
X699612Y852567D01*
X699345Y852855D01*
X699085Y853149D01*
X698832Y853450D01*
X698586Y853756D01*
X698349Y854069D01*
X698119Y854387D01*
X697896Y854711D01*
X697682Y855040D01*
X697476Y855374D01*
X697279Y855714D01*
X697089Y856058D01*
X696908Y856406D01*
X696736Y856759D01*
X696573Y857116D01*
X696418Y857477D01*
X696272Y857842D01*
X696135Y858210D01*
X696008Y858581D01*
X695889Y858955D01*
X695780Y859333D01*
X695679Y859712D01*
X695589Y860094D01*
X695507Y860479D01*
X695436Y860865D01*
X695373Y861252D01*
X695320Y861641D01*
X695277Y862032D01*
X695243Y862423D01*
X695219Y862815D01*
X695205Y863207D01*
X695200Y863600D01*
X9400Y863600D02*
X9405Y863993D01*
X9419Y864385D01*
X9443Y864777D01*
X9477Y865168D01*
X9520Y865559D01*
X9573Y865948D01*
X9636Y866335D01*
X9707Y866721D01*
X9789Y867106D01*
X9879Y867488D01*
X9980Y867867D01*
X10089Y868245D01*
X10208Y868619D01*
X10335Y868990D01*
X10472Y869358D01*
X10618Y869723D01*
X10773Y870084D01*
X10936Y870441D01*
X11108Y870794D01*
X11289Y871142D01*
X11479Y871486D01*
X11676Y871826D01*
X11882Y872160D01*
X12096Y872489D01*
X12319Y872813D01*
X12549Y873131D01*
X12786Y873444D01*
X13032Y873750D01*
X13285Y874051D01*
X13545Y874345D01*
X13812Y874633D01*
X14086Y874914D01*
X14367Y875188D01*
X14655Y875455D01*
X14949Y875715D01*
X15250Y875968D01*
X15556Y876214D01*
X15869Y876451D01*
X16187Y876681D01*
X16511Y876904D01*
X16840Y877118D01*
X17174Y877324D01*
X17514Y877521D01*
X17858Y877711D01*
X18206Y877892D01*
X18559Y878064D01*
X18916Y878227D01*
X19277Y878382D01*
X19642Y878528D01*
X20010Y878665D01*
X20381Y878792D01*
X20755Y878911D01*
X21133Y879020D01*
X21512Y879121D01*
X21894Y879211D01*
X22279Y879293D01*
X22665Y879364D01*
X23052Y879427D01*
X23441Y879480D01*
X23832Y879523D01*
X24223Y879557D01*
X24615Y879581D01*
X25007Y879595D01*
X25400Y879600D01*
X25793Y879595D01*
X26185Y879581D01*
X26577Y879557D01*
X26968Y879523D01*
X27359Y879480D01*
X27748Y879427D01*
X28135Y879364D01*
X28521Y879293D01*
X28906Y879211D01*
X29288Y879121D01*
X29667Y879020D01*
X30045Y878911D01*
X30419Y878792D01*
X30790Y878665D01*
X31158Y878528D01*
X31523Y878382D01*
X31884Y878227D01*
X32241Y878064D01*
X32594Y877892D01*
X32942Y877711D01*
X33286Y877521D01*
X33626Y877324D01*
X33960Y877118D01*
X34289Y876904D01*
X34613Y876681D01*
X34931Y876451D01*
X35244Y876214D01*
X35550Y875968D01*
X35851Y875715D01*
X36145Y875455D01*
X36433Y875188D01*
X36714Y874914D01*
X36988Y874633D01*
X37255Y874345D01*
X37515Y874051D01*
X37768Y873750D01*
X38014Y873444D01*
X38251Y873131D01*
X38481Y872813D01*
X38704Y872489D01*
X38918Y872160D01*
X39124Y871826D01*
X39321Y871486D01*
X39511Y871142D01*
X39692Y870794D01*
X39864Y870441D01*
X40027Y870084D01*
X40182Y869723D01*
X40328Y869358D01*
X40465Y868990D01*
X40592Y868619D01*
X40711Y868245D01*
X40820Y867867D01*
X40921Y867488D01*
X41011Y867106D01*
X41093Y866721D01*
X41164Y866335D01*
X41227Y865948D01*
X41280Y865559D01*
X41323Y865168D01*
X41357Y864777D01*
X41381Y864385D01*
X41395Y863993D01*
X41400Y863600D01*
X41395Y863207D01*
X41381Y862815D01*
X41357Y862423D01*
X41323Y862032D01*
X41280Y861641D01*
X41227Y861252D01*
X41164Y860865D01*
X41093Y860479D01*
X41011Y860094D01*
X40921Y859712D01*
X40820Y859333D01*
X40711Y858955D01*
X40592Y858581D01*
X40465Y858210D01*
X40328Y857842D01*
X40182Y857477D01*
X40027Y857116D01*
X39864Y856759D01*
X39692Y856406D01*
X39511Y856058D01*
X39321Y855714D01*
X39124Y855374D01*
X38918Y855040D01*
X38704Y854711D01*
X38481Y854387D01*
X38251Y854069D01*
X38014Y853756D01*
X37768Y853450D01*
X37515Y853149D01*
X37255Y852855D01*
X36988Y852567D01*
X36714Y852286D01*
X36433Y852012D01*
X36145Y851745D01*
X35851Y851485D01*
X35550Y851232D01*
X35244Y850986D01*
X34931Y850749D01*
X34613Y850519D01*
X34289Y850296D01*
X33960Y850082D01*
X33626Y849876D01*
X33286Y849679D01*
X32942Y849489D01*
X32594Y849308D01*
X32241Y849136D01*
X31884Y848973D01*
X31523Y848818D01*
X31158Y848672D01*
X30790Y848535D01*
X30419Y848408D01*
X30045Y848289D01*
X29667Y848180D01*
X29288Y848079D01*
X28906Y847989D01*
X28521Y847907D01*
X28135Y847836D01*
X27748Y847773D01*
X27359Y847720D01*
X26968Y847677D01*
X26577Y847643D01*
X26185Y847619D01*
X25793Y847605D01*
X25400Y847600D01*
X25007Y847605D01*
X24615Y847619D01*
X24223Y847643D01*
X23832Y847677D01*
X23441Y847720D01*
X23052Y847773D01*
X22665Y847836D01*
X22279Y847907D01*
X21894Y847989D01*
X21512Y848079D01*
X21133Y848180D01*
X20755Y848289D01*
X20381Y848408D01*
X20010Y848535D01*
X19642Y848672D01*
X19277Y848818D01*
X18916Y848973D01*
X18559Y849136D01*
X18206Y849308D01*
X17858Y849489D01*
X17514Y849679D01*
X17174Y849876D01*
X16840Y850082D01*
X16511Y850296D01*
X16187Y850519D01*
X15869Y850749D01*
X15556Y850986D01*
X15250Y851232D01*
X14949Y851485D01*
X14655Y851745D01*
X14367Y852012D01*
X14086Y852286D01*
X13812Y852567D01*
X13545Y852855D01*
X13285Y853149D01*
X13032Y853450D01*
X12786Y853756D01*
X12549Y854069D01*
X12319Y854387D01*
X12096Y854711D01*
X11882Y855040D01*
X11676Y855374D01*
X11479Y855714D01*
X11289Y856058D01*
X11108Y856406D01*
X10936Y856759D01*
X10773Y857116D01*
X10618Y857477D01*
X10472Y857842D01*
X10335Y858210D01*
X10208Y858581D01*
X10089Y858955D01*
X9980Y859333D01*
X9879Y859712D01*
X9789Y860094D01*
X9707Y860479D01*
X9636Y860865D01*
X9573Y861252D01*
X9520Y861641D01*
X9477Y862032D01*
X9443Y862423D01*
X9419Y862815D01*
X9405Y863207D01*
X9400Y863600D01*
D11*
X0Y25400D02*
X7Y24786D01*
X30Y24173D01*
X67Y23560D01*
X119Y22949D01*
X185Y22338D01*
X267Y21730D01*
X363Y21124D01*
X473Y20520D01*
X598Y19919D01*
X738Y19321D01*
X892Y18727D01*
X1061Y18137D01*
X1243Y17551D01*
X1440Y16970D01*
X1651Y16393D01*
X1875Y15822D01*
X2113Y15256D01*
X2365Y14696D01*
X2631Y14143D01*
X2909Y13596D01*
X3201Y13056D01*
X3506Y12523D01*
X3824Y11998D01*
X4154Y11480D01*
X4496Y10971D01*
X4851Y10470D01*
X5218Y9978D01*
X5596Y9495D01*
X5986Y9021D01*
X6388Y8557D01*
X6800Y8102D01*
X7224Y7658D01*
X7658Y7224D01*
X8102Y6800D01*
X8557Y6388D01*
X9021Y5986D01*
X9495Y5596D01*
X9978Y5218D01*
X10470Y4851D01*
X10971Y4496D01*
X11480Y4154D01*
X11998Y3824D01*
X12523Y3506D01*
X13056Y3201D01*
X13596Y2909D01*
X14143Y2631D01*
X14696Y2365D01*
X15256Y2113D01*
X15822Y1875D01*
X16393Y1651D01*
X16970Y1440D01*
X17551Y1243D01*
X18137Y1061D01*
X18727Y892D01*
X19321Y738D01*
X19919Y598D01*
X20520Y473D01*
X21124Y363D01*
X21730Y267D01*
X22338Y185D01*
X22949Y119D01*
X23560Y67D01*
X24173Y30D01*
X24786Y7D01*
X25400Y0D01*
X0Y25400D02*
X0Y863600D01*
X7Y864214D01*
X30Y864827D01*
X67Y865440D01*
X119Y866051D01*
X185Y866662D01*
X267Y867270D01*
X363Y867876D01*
X473Y868480D01*
X598Y869081D01*
X738Y869679D01*
X892Y870273D01*
X1061Y870863D01*
X1243Y871449D01*
X1440Y872030D01*
X1651Y872607D01*
X1875Y873178D01*
X2113Y873744D01*
X2365Y874304D01*
X2631Y874857D01*
X2909Y875404D01*
X3201Y875944D01*
X3506Y876477D01*
X3824Y877002D01*
X4154Y877520D01*
X4496Y878029D01*
X4851Y878530D01*
X5218Y879022D01*
X5596Y879505D01*
X5986Y879979D01*
X6388Y880443D01*
X6800Y880898D01*
X7224Y881342D01*
X7658Y881776D01*
X8102Y882200D01*
X8557Y882612D01*
X9021Y883014D01*
X9495Y883404D01*
X9978Y883782D01*
X10470Y884149D01*
X10971Y884504D01*
X11480Y884846D01*
X11998Y885176D01*
X12523Y885494D01*
X13056Y885799D01*
X13596Y886091D01*
X14143Y886369D01*
X14696Y886635D01*
X15256Y886887D01*
X15822Y887125D01*
X16393Y887349D01*
X16970Y887560D01*
X17551Y887757D01*
X18137Y887939D01*
X18727Y888108D01*
X19321Y888262D01*
X19919Y888402D01*
X20520Y888527D01*
X21124Y888637D01*
X21730Y888733D01*
X22338Y888815D01*
X22949Y888881D01*
X23560Y888933D01*
X24173Y888970D01*
X24786Y888993D01*
X25400Y889000D01*
X711200Y889000D01*
X711200Y0D02*
X25400Y0D01*
X711200Y0D02*
X711814Y7D01*
X712427Y30D01*
X713040Y67D01*
X713651Y119D01*
X714262Y185D01*
X714870Y267D01*
X715476Y363D01*
X716080Y473D01*
X716681Y598D01*
X717279Y738D01*
X717873Y892D01*
X718463Y1061D01*
X719049Y1243D01*
X719630Y1440D01*
X720207Y1651D01*
X720778Y1875D01*
X721344Y2113D01*
X721904Y2365D01*
X722457Y2631D01*
X723004Y2909D01*
X723544Y3201D01*
X724077Y3506D01*
X724602Y3824D01*
X725120Y4154D01*
X725629Y4496D01*
X726130Y4851D01*
X726622Y5218D01*
X727105Y5596D01*
X727579Y5986D01*
X728043Y6388D01*
X728498Y6800D01*
X728942Y7224D01*
X729376Y7658D01*
X729800Y8102D01*
X730212Y8557D01*
X730614Y9021D01*
X731004Y9495D01*
X731382Y9978D01*
X731749Y10470D01*
X732104Y10971D01*
X732446Y11480D01*
X732776Y11998D01*
X733094Y12523D01*
X733399Y13056D01*
X733691Y13596D01*
X733969Y14143D01*
X734235Y14696D01*
X734487Y15256D01*
X734725Y15822D01*
X734949Y16393D01*
X735160Y16970D01*
X735357Y17551D01*
X735539Y18137D01*
X735708Y18727D01*
X735862Y19321D01*
X736002Y19919D01*
X736127Y20520D01*
X736237Y21124D01*
X736333Y21730D01*
X736415Y22338D01*
X736481Y22949D01*
X736533Y23560D01*
X736570Y24173D01*
X736593Y24786D01*
X736600Y25400D01*
X736600Y863600D01*
X736593Y864214D01*
X736570Y864827D01*
X736533Y865440D01*
X736481Y866051D01*
X736415Y866662D01*
X736333Y867270D01*
X736237Y867876D01*
X736127Y868480D01*
X736002Y869081D01*
X735862Y869679D01*
X735708Y870273D01*
X735539Y870863D01*
X735357Y871449D01*
X735160Y872030D01*
X734949Y872607D01*
X734725Y873178D01*
X734487Y873744D01*
X734235Y874304D01*
X733969Y874857D01*
X733691Y875404D01*
X733399Y875944D01*
X733094Y876477D01*
X732776Y877002D01*
X732446Y877520D01*
X732104Y878029D01*
X731749Y878530D01*
X731382Y879022D01*
X731004Y879505D01*
X730614Y879979D01*
X730212Y880443D01*
X729800Y880898D01*
X729376Y881342D01*
X728942Y881776D01*
X728498Y882200D01*
X728043Y882612D01*
X727579Y883014D01*
X727105Y883404D01*
X726622Y883782D01*
X726130Y884149D01*
X725629Y884504D01*
X725120Y884846D01*
X724602Y885176D01*
X724077Y885494D01*
X723544Y885799D01*
X723004Y886091D01*
X722457Y886369D01*
X721904Y886635D01*
X721344Y886887D01*
X720778Y887125D01*
X720207Y887349D01*
X719630Y887560D01*
X719049Y887757D01*
X718463Y887939D01*
X717873Y888108D01*
X717279Y888262D01*
X716681Y888402D01*
X716080Y888527D01*
X715476Y888637D01*
X714870Y888733D01*
X714262Y888815D01*
X713651Y888881D01*
X713040Y888933D01*
X712427Y888970D01*
X711814Y888993D01*
X711200Y889000D01*
D10*
X139170Y840370D02*
X139172Y840488D01*
X139178Y840606D01*
X139188Y840724D01*
X139202Y840841D01*
X139220Y840958D01*
X139242Y841075D01*
X139267Y841190D01*
X139297Y841304D01*
X139331Y841418D01*
X139368Y841530D01*
X139409Y841641D01*
X139454Y841750D01*
X139502Y841858D01*
X139554Y841964D01*
X139610Y842069D01*
X139669Y842171D01*
X139731Y842271D01*
X139797Y842369D01*
X139866Y842465D01*
X139939Y842559D01*
X140014Y842650D01*
X140093Y842738D01*
X140174Y842824D01*
X140259Y842907D01*
X140346Y842987D01*
X140435Y843064D01*
X140528Y843138D01*
X140622Y843208D01*
X140719Y843276D01*
X140819Y843340D01*
X140920Y843401D01*
X141023Y843458D01*
X141129Y843512D01*
X141236Y843563D01*
X141344Y843609D01*
X141454Y843652D01*
X141566Y843691D01*
X141679Y843727D01*
X141793Y843758D01*
X141908Y843786D01*
X142023Y843810D01*
X142140Y843830D01*
X142257Y843846D01*
X142375Y843858D01*
X142493Y843866D01*
X142611Y843870D01*
X142729Y843870D01*
X142847Y843866D01*
X142965Y843858D01*
X143083Y843846D01*
X143200Y843830D01*
X143317Y843810D01*
X143432Y843786D01*
X143547Y843758D01*
X143661Y843727D01*
X143774Y843691D01*
X143886Y843652D01*
X143996Y843609D01*
X144104Y843563D01*
X144211Y843512D01*
X144317Y843458D01*
X144420Y843401D01*
X144521Y843340D01*
X144621Y843276D01*
X144718Y843208D01*
X144812Y843138D01*
X144905Y843064D01*
X144994Y842987D01*
X145081Y842907D01*
X145166Y842824D01*
X145247Y842738D01*
X145326Y842650D01*
X145401Y842559D01*
X145474Y842465D01*
X145543Y842369D01*
X145609Y842271D01*
X145671Y842171D01*
X145730Y842069D01*
X145786Y841964D01*
X145838Y841858D01*
X145886Y841750D01*
X145931Y841641D01*
X145972Y841530D01*
X146009Y841418D01*
X146043Y841304D01*
X146073Y841190D01*
X146098Y841075D01*
X146120Y840958D01*
X146138Y840841D01*
X146152Y840724D01*
X146162Y840606D01*
X146168Y840488D01*
X146170Y840370D01*
X146168Y840252D01*
X146162Y840134D01*
X146152Y840016D01*
X146138Y839899D01*
X146120Y839782D01*
X146098Y839665D01*
X146073Y839550D01*
X146043Y839436D01*
X146009Y839322D01*
X145972Y839210D01*
X145931Y839099D01*
X145886Y838990D01*
X145838Y838882D01*
X145786Y838776D01*
X145730Y838671D01*
X145671Y838569D01*
X145609Y838469D01*
X145543Y838371D01*
X145474Y838275D01*
X145401Y838181D01*
X145326Y838090D01*
X145247Y838002D01*
X145166Y837916D01*
X145081Y837833D01*
X144994Y837753D01*
X144905Y837676D01*
X144812Y837602D01*
X144718Y837532D01*
X144621Y837464D01*
X144521Y837400D01*
X144420Y837339D01*
X144317Y837282D01*
X144211Y837228D01*
X144104Y837177D01*
X143996Y837131D01*
X143886Y837088D01*
X143774Y837049D01*
X143661Y837013D01*
X143547Y836982D01*
X143432Y836954D01*
X143317Y836930D01*
X143200Y836910D01*
X143083Y836894D01*
X142965Y836882D01*
X142847Y836874D01*
X142729Y836870D01*
X142611Y836870D01*
X142493Y836874D01*
X142375Y836882D01*
X142257Y836894D01*
X142140Y836910D01*
X142023Y836930D01*
X141908Y836954D01*
X141793Y836982D01*
X141679Y837013D01*
X141566Y837049D01*
X141454Y837088D01*
X141344Y837131D01*
X141236Y837177D01*
X141129Y837228D01*
X141023Y837282D01*
X140920Y837339D01*
X140819Y837400D01*
X140719Y837464D01*
X140622Y837532D01*
X140528Y837602D01*
X140435Y837676D01*
X140346Y837753D01*
X140259Y837833D01*
X140174Y837916D01*
X140093Y838002D01*
X140014Y838090D01*
X139939Y838181D01*
X139866Y838275D01*
X139797Y838371D01*
X139731Y838469D01*
X139669Y838569D01*
X139610Y838671D01*
X139554Y838776D01*
X139502Y838882D01*
X139454Y838990D01*
X139409Y839099D01*
X139368Y839210D01*
X139331Y839322D01*
X139297Y839436D01*
X139267Y839550D01*
X139242Y839665D01*
X139220Y839782D01*
X139202Y839899D01*
X139188Y840016D01*
X139178Y840134D01*
X139172Y840252D01*
X139170Y840370D01*
X97670Y840370D02*
X97672Y840488D01*
X97678Y840606D01*
X97688Y840724D01*
X97702Y840841D01*
X97720Y840958D01*
X97742Y841075D01*
X97767Y841190D01*
X97797Y841304D01*
X97831Y841418D01*
X97868Y841530D01*
X97909Y841641D01*
X97954Y841750D01*
X98002Y841858D01*
X98054Y841964D01*
X98110Y842069D01*
X98169Y842171D01*
X98231Y842271D01*
X98297Y842369D01*
X98366Y842465D01*
X98439Y842559D01*
X98514Y842650D01*
X98593Y842738D01*
X98674Y842824D01*
X98759Y842907D01*
X98846Y842987D01*
X98935Y843064D01*
X99028Y843138D01*
X99122Y843208D01*
X99219Y843276D01*
X99319Y843340D01*
X99420Y843401D01*
X99523Y843458D01*
X99629Y843512D01*
X99736Y843563D01*
X99844Y843609D01*
X99954Y843652D01*
X100066Y843691D01*
X100179Y843727D01*
X100293Y843758D01*
X100408Y843786D01*
X100523Y843810D01*
X100640Y843830D01*
X100757Y843846D01*
X100875Y843858D01*
X100993Y843866D01*
X101111Y843870D01*
X101229Y843870D01*
X101347Y843866D01*
X101465Y843858D01*
X101583Y843846D01*
X101700Y843830D01*
X101817Y843810D01*
X101932Y843786D01*
X102047Y843758D01*
X102161Y843727D01*
X102274Y843691D01*
X102386Y843652D01*
X102496Y843609D01*
X102604Y843563D01*
X102711Y843512D01*
X102817Y843458D01*
X102920Y843401D01*
X103021Y843340D01*
X103121Y843276D01*
X103218Y843208D01*
X103312Y843138D01*
X103405Y843064D01*
X103494Y842987D01*
X103581Y842907D01*
X103666Y842824D01*
X103747Y842738D01*
X103826Y842650D01*
X103901Y842559D01*
X103974Y842465D01*
X104043Y842369D01*
X104109Y842271D01*
X104171Y842171D01*
X104230Y842069D01*
X104286Y841964D01*
X104338Y841858D01*
X104386Y841750D01*
X104431Y841641D01*
X104472Y841530D01*
X104509Y841418D01*
X104543Y841304D01*
X104573Y841190D01*
X104598Y841075D01*
X104620Y840958D01*
X104638Y840841D01*
X104652Y840724D01*
X104662Y840606D01*
X104668Y840488D01*
X104670Y840370D01*
X104668Y840252D01*
X104662Y840134D01*
X104652Y840016D01*
X104638Y839899D01*
X104620Y839782D01*
X104598Y839665D01*
X104573Y839550D01*
X104543Y839436D01*
X104509Y839322D01*
X104472Y839210D01*
X104431Y839099D01*
X104386Y838990D01*
X104338Y838882D01*
X104286Y838776D01*
X104230Y838671D01*
X104171Y838569D01*
X104109Y838469D01*
X104043Y838371D01*
X103974Y838275D01*
X103901Y838181D01*
X103826Y838090D01*
X103747Y838002D01*
X103666Y837916D01*
X103581Y837833D01*
X103494Y837753D01*
X103405Y837676D01*
X103312Y837602D01*
X103218Y837532D01*
X103121Y837464D01*
X103021Y837400D01*
X102920Y837339D01*
X102817Y837282D01*
X102711Y837228D01*
X102604Y837177D01*
X102496Y837131D01*
X102386Y837088D01*
X102274Y837049D01*
X102161Y837013D01*
X102047Y836982D01*
X101932Y836954D01*
X101817Y836930D01*
X101700Y836910D01*
X101583Y836894D01*
X101465Y836882D01*
X101347Y836874D01*
X101229Y836870D01*
X101111Y836870D01*
X100993Y836874D01*
X100875Y836882D01*
X100757Y836894D01*
X100640Y836910D01*
X100523Y836930D01*
X100408Y836954D01*
X100293Y836982D01*
X100179Y837013D01*
X100066Y837049D01*
X99954Y837088D01*
X99844Y837131D01*
X99736Y837177D01*
X99629Y837228D01*
X99523Y837282D01*
X99420Y837339D01*
X99319Y837400D01*
X99219Y837464D01*
X99122Y837532D01*
X99028Y837602D01*
X98935Y837676D01*
X98846Y837753D01*
X98759Y837833D01*
X98674Y837916D01*
X98593Y838002D01*
X98514Y838090D01*
X98439Y838181D01*
X98366Y838275D01*
X98297Y838371D01*
X98231Y838469D01*
X98169Y838569D01*
X98110Y838671D01*
X98054Y838776D01*
X98002Y838882D01*
X97954Y838990D01*
X97909Y839099D01*
X97868Y839210D01*
X97831Y839322D01*
X97797Y839436D01*
X97767Y839550D01*
X97742Y839665D01*
X97720Y839782D01*
X97702Y839899D01*
X97688Y840016D01*
X97678Y840134D01*
X97672Y840252D01*
X97670Y840370D01*
D12*
X0Y25400D02*
X97Y23186D01*
X386Y20989D01*
X865Y18826D01*
X1532Y16713D01*
X2380Y14666D01*
X3403Y12700D01*
X4594Y10831D01*
X5942Y9073D01*
X7440Y7440D01*
X9073Y5942D01*
X10831Y4594D01*
X12700Y3403D01*
X14666Y2380D01*
X16713Y1532D01*
X18826Y865D01*
X20989Y386D01*
X23186Y97D01*
X25400Y0D01*
X711200Y0D01*
X713414Y97D01*
X715611Y386D01*
X717774Y865D01*
X719887Y1532D01*
X721935Y2380D01*
X723900Y3403D01*
X725769Y4594D01*
X727527Y5942D01*
X729161Y7440D01*
X730658Y9073D01*
X732006Y10831D01*
X733197Y12700D01*
X734220Y14666D01*
X735068Y16713D01*
X735735Y18826D01*
X736214Y20989D01*
X736503Y23186D01*
X736600Y25400D01*
X736600Y863600D01*
X736503Y865814D01*
X736214Y868011D01*
X735735Y870174D01*
X735068Y872287D01*
X734220Y874335D01*
X733197Y876300D01*
X732006Y878169D01*
X730658Y879927D01*
X729161Y881561D01*
X727527Y883058D01*
X725769Y884406D01*
X723900Y885597D01*
X721935Y886620D01*
X719887Y887468D01*
X717774Y888135D01*
X715611Y888614D01*
X713414Y888903D01*
X711200Y889000D01*
X25400Y889000D01*
X23186Y888903D01*
X20989Y888614D01*
X18826Y888135D01*
X16713Y887468D01*
X14666Y886620D01*
X12700Y885597D01*
X10831Y884406D01*
X9073Y883058D01*
X7440Y881561D01*
X5942Y879927D01*
X4594Y878169D01*
X3403Y876300D01*
X2380Y874335D01*
X1532Y872287D01*
X865Y870174D01*
X386Y868011D01*
X97Y865814D01*
X0Y863600D01*
X0Y25400D01*
X41400Y24876D02*
X41332Y23831D01*
X41195Y22792D01*
X40990Y21765D01*
X40719Y20753D01*
X40383Y19761D01*
X39982Y18793D01*
X39518Y17854D01*
X38995Y16946D01*
X38413Y16075D01*
X37775Y15244D01*
X37084Y14457D01*
X36343Y13716D01*
X35556Y13025D01*
X34725Y12388D01*
X33854Y11806D01*
X32946Y11282D01*
X32007Y10818D01*
X31039Y10417D01*
X30047Y10081D01*
X29035Y9810D01*
X28008Y9605D01*
X26969Y9469D01*
X25924Y9400D01*
X24876Y9400D01*
X23831Y9469D01*
X22792Y9605D01*
X21765Y9810D01*
X20753Y10081D01*
X19761Y10417D01*
X18793Y10818D01*
X17854Y11282D01*
X16946Y11806D01*
X16075Y12388D01*
X15244Y13025D01*
X14457Y13716D01*
X13716Y14457D01*
X13025Y15244D01*
X12388Y16075D01*
X11806Y16946D01*
X11282Y17854D01*
X10818Y18793D01*
X10417Y19761D01*
X10081Y20753D01*
X9810Y21765D01*
X9605Y22792D01*
X9469Y23831D01*
X9400Y24876D01*
X9400Y25924D01*
X9469Y26969D01*
X9605Y28008D01*
X9810Y29035D01*
X10081Y30047D01*
X10417Y31039D01*
X10818Y32007D01*
X11282Y32946D01*
X11806Y33854D01*
X12388Y34725D01*
X13025Y35556D01*
X13716Y36343D01*
X14457Y37084D01*
X15244Y37775D01*
X16075Y38413D01*
X16946Y38995D01*
X17854Y39518D01*
X18793Y39982D01*
X19761Y40383D01*
X20753Y40719D01*
X21765Y40990D01*
X22792Y41195D01*
X23831Y41332D01*
X24876Y41400D01*
X25924Y41400D01*
X26969Y41332D01*
X28008Y41195D01*
X29035Y40990D01*
X30047Y40719D01*
X31039Y40383D01*
X32007Y39982D01*
X32946Y39518D01*
X33854Y38995D01*
X34725Y38413D01*
X35556Y37775D01*
X36343Y37084D01*
X37084Y36343D01*
X37775Y35556D01*
X38413Y34725D01*
X38995Y33854D01*
X39518Y32946D01*
X39982Y32007D01*
X40383Y31039D01*
X40719Y30047D01*
X40990Y29035D01*
X41195Y28008D01*
X41332Y26969D01*
X41400Y25924D01*
X41400Y24876D01*
X727200Y24876D02*
X727132Y23831D01*
X726995Y22792D01*
X726790Y21765D01*
X726519Y20753D01*
X726183Y19761D01*
X725782Y18793D01*
X725318Y17854D01*
X724795Y16946D01*
X724213Y16075D01*
X723575Y15244D01*
X722884Y14457D01*
X722143Y13716D01*
X721356Y13025D01*
X720525Y12388D01*
X719654Y11806D01*
X718746Y11282D01*
X717807Y10818D01*
X716839Y10417D01*
X715847Y10081D01*
X714835Y9810D01*
X713808Y9605D01*
X712769Y9469D01*
X711724Y9400D01*
X710676Y9400D01*
X709631Y9469D01*
X708592Y9605D01*
X707565Y9810D01*
X706553Y10081D01*
X705561Y10417D01*
X704593Y10818D01*
X703654Y11282D01*
X702746Y11806D01*
X701875Y12388D01*
X701044Y13025D01*
X700257Y13716D01*
X699516Y14457D01*
X698825Y15244D01*
X698188Y16075D01*
X697606Y16946D01*
X697082Y17854D01*
X696618Y18793D01*
X696217Y19761D01*
X695881Y20753D01*
X695610Y21765D01*
X695405Y22792D01*
X695269Y23831D01*
X695200Y24876D01*
X695200Y25924D01*
X695269Y26969D01*
X695405Y28008D01*
X695610Y29035D01*
X695881Y30047D01*
X696217Y31039D01*
X696618Y32007D01*
X697082Y32946D01*
X697606Y33854D01*
X698188Y34725D01*
X698825Y35556D01*
X699516Y36343D01*
X700257Y37084D01*
X701044Y37775D01*
X701875Y38413D01*
X702746Y38995D01*
X703654Y39518D01*
X704593Y39982D01*
X705561Y40383D01*
X706553Y40719D01*
X707565Y40990D01*
X708592Y41195D01*
X709631Y41332D01*
X710676Y41400D01*
X711724Y41400D01*
X712769Y41332D01*
X713808Y41195D01*
X714835Y40990D01*
X715847Y40719D01*
X716839Y40383D01*
X717807Y39982D01*
X718746Y39518D01*
X719654Y38995D01*
X720525Y38413D01*
X721356Y37775D01*
X722143Y37084D01*
X722884Y36343D01*
X723575Y35556D01*
X724213Y34725D01*
X724795Y33854D01*
X725318Y32946D01*
X725782Y32007D01*
X726183Y31039D01*
X726519Y30047D01*
X726790Y29035D01*
X726995Y28008D01*
X727132Y26969D01*
X727200Y25924D01*
X727200Y24876D01*
X727200Y863076D02*
X727132Y862031D01*
X726995Y860992D01*
X726790Y859965D01*
X726519Y858953D01*
X726183Y857961D01*
X725782Y856993D01*
X725318Y856054D01*
X724795Y855146D01*
X724213Y854275D01*
X723575Y853444D01*
X722884Y852657D01*
X722143Y851916D01*
X721356Y851225D01*
X720525Y850588D01*
X719654Y850006D01*
X718746Y849482D01*
X717807Y849018D01*
X716839Y848617D01*
X715847Y848281D01*
X714835Y848010D01*
X713808Y847805D01*
X712769Y847669D01*
X711724Y847600D01*
X710676Y847600D01*
X709631Y847669D01*
X708592Y847805D01*
X707565Y848010D01*
X706553Y848281D01*
X705561Y848617D01*
X704593Y849018D01*
X703654Y849482D01*
X702746Y850006D01*
X701875Y850588D01*
X701044Y851225D01*
X700257Y851916D01*
X699516Y852657D01*
X698825Y853444D01*
X698188Y854275D01*
X697606Y855146D01*
X697082Y856054D01*
X696618Y856993D01*
X696217Y857961D01*
X695881Y858953D01*
X695610Y859965D01*
X695405Y860992D01*
X695269Y862031D01*
X695200Y863076D01*
X695200Y864124D01*
X695269Y865169D01*
X695405Y866208D01*
X695610Y867235D01*
X695881Y868247D01*
X696217Y869239D01*
X696618Y870207D01*
X697082Y871146D01*
X697606Y872054D01*
X698188Y872925D01*
X698825Y873756D01*
X699516Y874543D01*
X700257Y875284D01*
X701044Y875975D01*
X701875Y876613D01*
X702746Y877195D01*
X703654Y877718D01*
X704593Y878182D01*
X705561Y878583D01*
X706553Y878919D01*
X707565Y879190D01*
X708592Y879395D01*
X709631Y879532D01*
X710676Y879600D01*
X711724Y879600D01*
X712769Y879532D01*
X713808Y879395D01*
X714835Y879190D01*
X715847Y878919D01*
X716839Y878583D01*
X717807Y878182D01*
X718746Y877718D01*
X719654Y877195D01*
X720525Y876613D01*
X721356Y875975D01*
X722143Y875284D01*
X722884Y874543D01*
X723575Y873756D01*
X724213Y872925D01*
X724795Y872054D01*
X725318Y871146D01*
X725782Y870207D01*
X726183Y869239D01*
X726519Y868247D01*
X726790Y867235D01*
X726995Y866208D01*
X727132Y865169D01*
X727200Y864124D01*
X727200Y863076D01*
X41400Y863076D02*
X41332Y862031D01*
X41195Y860992D01*
X40990Y859965D01*
X40719Y858953D01*
X40383Y857961D01*
X39982Y856993D01*
X39518Y856054D01*
X38995Y855146D01*
X38413Y854275D01*
X37775Y853444D01*
X37084Y852657D01*
X36343Y851916D01*
X35556Y851225D01*
X34725Y850588D01*
X33854Y850006D01*
X32946Y849482D01*
X32007Y849018D01*
X31039Y848617D01*
X30047Y848281D01*
X29035Y848010D01*
X28008Y847805D01*
X26969Y847669D01*
X25924Y847600D01*
X24876Y847600D01*
X23831Y847669D01*
X22792Y847805D01*
X21765Y848010D01*
X20753Y848281D01*
X19761Y848617D01*
X18793Y849018D01*
X17854Y849482D01*
X16946Y850006D01*
X16075Y850588D01*
X15244Y851225D01*
X14457Y851916D01*
X13716Y852657D01*
X13025Y853444D01*
X12388Y854275D01*
X11806Y855146D01*
X11282Y856054D01*
X10818Y856993D01*
X10417Y857961D01*
X10081Y858953D01*
X9810Y859965D01*
X9605Y860992D01*
X9469Y862031D01*
X9400Y863076D01*
X9400Y864124D01*
X9469Y865169D01*
X9605Y866208D01*
X9810Y867235D01*
X10081Y868247D01*
X10417Y869239D01*
X10818Y870207D01*
X11282Y871146D01*
X11806Y872054D01*
X12388Y872925D01*
X13025Y873756D01*
X13716Y874543D01*
X14457Y875284D01*
X15244Y875975D01*
X16075Y876613D01*
X16946Y877195D01*
X17854Y877718D01*
X18793Y878182D01*
X19761Y878583D01*
X20753Y878919D01*
X21765Y879190D01*
X22792Y879395D01*
X23831Y879532D01*
X24876Y879600D01*
X25924Y879600D01*
X26969Y879532D01*
X28008Y879395D01*
X29035Y879190D01*
X30047Y878919D01*
X31039Y878583D01*
X32007Y878182D01*
X32946Y877718D01*
X33854Y877195D01*
X34725Y876613D01*
X35556Y875975D01*
X36343Y875284D01*
X37084Y874543D01*
X37775Y873756D01*
X38413Y872925D01*
X38995Y872054D01*
X39518Y871146D01*
X39982Y870207D01*
X40383Y869239D01*
X40719Y868247D01*
X40990Y867235D01*
X41195Y866208D01*
X41332Y865169D01*
X41400Y864124D01*
X41400Y863076D01*
X139170Y840599D02*
X139230Y841054D01*
X139349Y841497D01*
X139524Y841921D01*
X139754Y842319D01*
X140033Y842683D01*
X140357Y843007D01*
X140721Y843286D01*
X141119Y843516D01*
X141543Y843691D01*
X141986Y843810D01*
X142441Y843870D01*
X142899Y843870D01*
X143354Y843810D01*
X143797Y843691D01*
X144221Y843516D01*
X144619Y843286D01*
X144983Y843007D01*
X145307Y842683D01*
X145586Y842319D01*
X145816Y841921D01*
X145991Y841497D01*
X146110Y841054D01*
X146170Y840599D01*
X146170Y840141D01*
X146110Y839686D01*
X145991Y839243D01*
X145816Y838819D01*
X145586Y838421D01*
X145307Y838057D01*
X144983Y837733D01*
X144619Y837454D01*
X144221Y837224D01*
X143797Y837049D01*
X143354Y836930D01*
X142899Y836870D01*
X142441Y836870D01*
X141986Y836930D01*
X141543Y837049D01*
X141119Y837224D01*
X140721Y837454D01*
X140357Y837733D01*
X140033Y838057D01*
X139754Y838421D01*
X139524Y838819D01*
X139349Y839243D01*
X139230Y839686D01*
X139170Y840141D01*
X139170Y840599D01*
X97670Y840599D02*
X97730Y841054D01*
X97849Y841497D01*
X98024Y841921D01*
X98254Y842319D01*
X98533Y842683D01*
X98857Y843007D01*
X99221Y843286D01*
X99619Y843516D01*
X100043Y843691D01*
X100486Y843810D01*
X100941Y843870D01*
X101399Y843870D01*
X101854Y843810D01*
X102297Y843691D01*
X102721Y843516D01*
X103119Y843286D01*
X103483Y843007D01*
X103807Y842683D01*
X104086Y842319D01*
X104316Y841921D01*
X104491Y841497D01*
X104610Y841054D01*
X104670Y840599D01*
X104670Y840141D01*
X104610Y839686D01*
X104491Y839243D01*
X104316Y838819D01*
X104086Y838421D01*
X103807Y838057D01*
X103483Y837733D01*
X103119Y837454D01*
X102721Y837224D01*
X102297Y837049D01*
X101854Y836930D01*
X101399Y836870D01*
X100941Y836870D01*
X100486Y836930D01*
X100043Y837049D01*
X99619Y837224D01*
X99221Y837454D01*
X98857Y837733D01*
X98533Y838057D01*
X98254Y838421D01*
X98024Y838819D01*
X97849Y839243D01*
X97730Y839686D01*
X97670Y840141D01*
X97670Y840599D01*
M02*
