G04 EAGLE Gerber RS-274X export*
G75*
%MOMM*%
%FSLAX34Y34*%
%LPD*%
%INSoldermask Top*%
%IPPOS*%
%AMOC8*
5,1,8,0,0,1.08239X$1,22.5*%
G01*
%ADD10C,3.403200*%
%ADD11R,1.503200X1.703200*%
%ADD12R,1.803200X0.553200*%
%ADD13R,1.703200X1.503200*%
%ADD14R,1.403200X1.603200*%
%ADD15R,1.473200X0.838200*%
%ADD16R,3.810000X1.473200*%
%ADD17R,0.653200X1.403200*%
%ADD18R,0.803200X2.403200*%
%ADD19R,1.403200X0.803200*%
%ADD20R,0.653200X1.303200*%
%ADD21R,2.403200X0.803200*%
%ADD22R,0.453200X1.203200*%
%ADD23R,0.553200X1.003200*%
%ADD24R,0.803200X0.453200*%
%ADD25R,0.603200X1.403200*%
%ADD26R,1.603200X1.203200*%
%ADD27R,2.103200X2.103200*%
%ADD28R,0.603200X1.553200*%
%ADD29C,0.903200*%
%ADD30R,0.753200X1.403200*%
%ADD31R,1.703200X1.703200*%
%ADD32R,1.603200X1.603200*%
%ADD33R,0.838200X1.473200*%
%ADD34R,1.203200X1.603200*%
%ADD35R,3.403200X2.003200*%
%ADD36R,2.903200X3.153200*%
%ADD37R,3.603200X1.603200*%
%ADD38R,5.803200X2.503200*%
%ADD39C,1.853200*%
%ADD40R,1.003200X0.503200*%
%ADD41R,1.703200X1.103200*%
%ADD42R,2.438200X1.422200*%
%ADD43R,2.403200X3.803200*%
%ADD44R,0.508000X1.193800*%
%ADD45C,1.727200*%
%ADD46R,1.371600X1.803400*%
%ADD47R,4.803200X1.203200*%
%ADD48R,3.603200X1.803200*%
%ADD49R,1.103200X1.203200*%
%ADD50R,1.653200X0.653200*%
%ADD51R,0.613200X1.193200*%
%ADD52R,0.613200X1.143200*%
%ADD53R,1.193200X0.613200*%
%ADD54R,1.403200X2.203200*%
%ADD55R,1.903200X1.303200*%
%ADD56C,1.209600*%
%ADD57C,1.109600*%
%ADD58C,0.959600*%


D10*
X25400Y25400D03*
X711200Y25400D03*
X711200Y863600D03*
X25400Y863600D03*
D11*
X146660Y496570D03*
X127660Y496570D03*
X20980Y666115D03*
X39980Y666115D03*
D12*
X504222Y529480D03*
X504222Y522980D03*
X504222Y516480D03*
X504222Y509980D03*
X504222Y503480D03*
X504222Y496980D03*
X504222Y490480D03*
X504222Y483980D03*
X562578Y483980D03*
X562578Y490480D03*
X562578Y496980D03*
X562578Y503480D03*
X562578Y509980D03*
X562578Y516480D03*
X562578Y522980D03*
X562578Y529480D03*
D13*
X546100Y432410D03*
X546100Y413410D03*
X523240Y432410D03*
X523240Y413410D03*
D11*
X542900Y461010D03*
X523900Y461010D03*
X564540Y461010D03*
X583540Y461010D03*
X502260Y461010D03*
X483260Y461010D03*
X297155Y510540D03*
X278155Y510540D03*
D12*
X249523Y230615D03*
X249523Y237115D03*
X249523Y243615D03*
X249523Y250115D03*
X249523Y256615D03*
X249523Y263115D03*
X249523Y269615D03*
X249523Y276115D03*
X191167Y276115D03*
X191167Y269615D03*
X191167Y263115D03*
X191167Y256615D03*
X191167Y250115D03*
X191167Y243615D03*
X191167Y237115D03*
X191167Y230615D03*
D11*
X157455Y81280D03*
X138455Y81280D03*
X134645Y278130D03*
X153645Y278130D03*
X57175Y78105D03*
X76175Y78105D03*
D13*
X107315Y276250D03*
X107315Y295250D03*
D12*
X293973Y304910D03*
X293973Y311410D03*
X293973Y317910D03*
X293973Y324410D03*
X293973Y330910D03*
X293973Y337410D03*
X293973Y343910D03*
X293973Y350410D03*
X235617Y350410D03*
X235617Y343910D03*
X235617Y337410D03*
X235617Y330910D03*
X235617Y324410D03*
X235617Y317910D03*
X235617Y311410D03*
X235617Y304910D03*
D13*
X592455Y502895D03*
X592455Y483895D03*
D14*
X46750Y285750D03*
X16750Y285750D03*
D11*
X41885Y314325D03*
X22885Y314325D03*
D15*
X79145Y342900D03*
X79145Y355600D03*
X79145Y368300D03*
X18645Y368300D03*
X18645Y355600D03*
X18645Y342900D03*
D13*
X105410Y404520D03*
X105410Y423520D03*
D15*
X79145Y399415D03*
X79145Y412115D03*
X79145Y424815D03*
X18645Y424815D03*
X18645Y412115D03*
X18645Y399415D03*
D11*
X86385Y666115D03*
X105385Y666115D03*
D13*
X111125Y748055D03*
X111125Y767055D03*
X224790Y638150D03*
X224790Y619150D03*
X224790Y588620D03*
X224790Y569620D03*
D16*
X190881Y487680D03*
X152019Y462280D03*
X190881Y436880D03*
X152019Y411480D03*
X190881Y386080D03*
X152019Y360680D03*
D17*
X441550Y632620D03*
X435050Y632620D03*
X428550Y632620D03*
X422050Y632620D03*
X422050Y589120D03*
X428550Y589120D03*
X435050Y589120D03*
X441550Y589120D03*
D18*
X515620Y198720D03*
X515620Y146720D03*
X528320Y198720D03*
X502920Y198720D03*
X490220Y198720D03*
X528320Y146720D03*
X502920Y146720D03*
X490220Y146720D03*
D19*
X515260Y64160D03*
X515260Y83160D03*
X541380Y64160D03*
X541380Y73660D03*
X541380Y83160D03*
D20*
X352200Y689310D03*
X358700Y689310D03*
X365200Y689310D03*
X371700Y689310D03*
X371700Y715310D03*
X365200Y715310D03*
X358700Y715310D03*
X352200Y715310D03*
D21*
X612810Y805180D03*
X664810Y805180D03*
X612810Y817880D03*
X612810Y792480D03*
X612810Y779780D03*
X664810Y817880D03*
X664810Y792480D03*
X664810Y779780D03*
D11*
X424790Y525780D03*
X405790Y525780D03*
X443840Y416560D03*
X424840Y416560D03*
D13*
X394970Y377850D03*
X394970Y396850D03*
D22*
X371000Y141429D03*
X376000Y141429D03*
X381000Y141429D03*
X386000Y141429D03*
X391000Y141429D03*
X391000Y183691D03*
X386000Y183691D03*
X381000Y183691D03*
X376000Y183691D03*
X371000Y183691D03*
D23*
X454610Y215510D03*
X448110Y215510D03*
X441610Y215510D03*
X441610Y198510D03*
X448110Y198510D03*
X454610Y198510D03*
D24*
X230340Y424060D03*
X230340Y419060D03*
X230340Y414060D03*
X230340Y409060D03*
X257340Y409060D03*
X257340Y414060D03*
X257340Y419060D03*
X257340Y424060D03*
X230340Y501530D03*
X230340Y496530D03*
X230340Y491530D03*
X230340Y486530D03*
X257340Y486530D03*
X257340Y491530D03*
X257340Y496530D03*
X257340Y501530D03*
D25*
X529700Y572095D03*
X536200Y572095D03*
X542700Y572095D03*
X549200Y572095D03*
X555700Y572095D03*
X562200Y572095D03*
X568700Y572095D03*
X575200Y572095D03*
X575200Y647105D03*
X568700Y647105D03*
X562200Y647105D03*
X555700Y647105D03*
X549200Y647105D03*
X542700Y647105D03*
X536200Y647105D03*
X529700Y647105D03*
D26*
X501220Y808990D03*
X479220Y799490D03*
X479220Y818490D03*
D27*
X161920Y864870D03*
X133920Y864870D03*
X109920Y864870D03*
X81920Y864870D03*
D28*
X134920Y837870D03*
X128420Y837870D03*
X121920Y837870D03*
X115420Y837870D03*
X108920Y837870D03*
D29*
X142670Y840370D03*
X101170Y840370D03*
D13*
X210820Y793090D03*
X210820Y774090D03*
X132080Y767055D03*
X132080Y748055D03*
D30*
X159410Y769319D03*
X168910Y769319D03*
X178410Y769319D03*
X178410Y795321D03*
X159410Y795321D03*
D11*
X144120Y795020D03*
X125120Y795020D03*
D31*
X159385Y749655D03*
X159385Y714655D03*
D11*
X200000Y718185D03*
X181000Y718185D03*
D32*
X139750Y815340D03*
X177750Y815340D03*
D13*
X241300Y743830D03*
X241300Y726830D03*
D26*
X251030Y783590D03*
X229030Y774090D03*
X229030Y793090D03*
D33*
X248920Y815570D03*
X261620Y815570D03*
X274320Y815570D03*
X274320Y876070D03*
X261620Y876070D03*
X248920Y876070D03*
D13*
X303530Y817000D03*
X303530Y834000D03*
X322580Y792090D03*
X322580Y775090D03*
D26*
X278560Y783590D03*
X300560Y793090D03*
X300560Y774090D03*
D32*
X185470Y853440D03*
X223470Y853440D03*
D34*
X251460Y682420D03*
X241960Y704420D03*
X260960Y704420D03*
D11*
X479450Y838200D03*
X498450Y838200D03*
X479450Y864870D03*
X498450Y864870D03*
D13*
X527050Y789330D03*
X527050Y808330D03*
X527050Y851510D03*
X527050Y832510D03*
D35*
X567690Y847150D03*
X567690Y791150D03*
D36*
X410210Y865600D03*
X410210Y798100D03*
D11*
X375530Y864870D03*
X358530Y864870D03*
X375530Y798830D03*
X358530Y798830D03*
D13*
X359410Y841350D03*
X359410Y822350D03*
X665480Y838860D03*
X665480Y857860D03*
X636270Y838860D03*
X636270Y857860D03*
X608330Y838860D03*
X608330Y857860D03*
X298450Y638150D03*
X298450Y619150D03*
X278130Y638150D03*
X278130Y619150D03*
X365760Y668630D03*
X365760Y649630D03*
D11*
X461670Y577850D03*
X480670Y577850D03*
D13*
X445770Y706780D03*
X445770Y725780D03*
X401320Y687730D03*
X401320Y706730D03*
D11*
X424790Y657860D03*
X405790Y657860D03*
D13*
X425450Y706730D03*
X425450Y687730D03*
D11*
X478130Y628650D03*
X459130Y628650D03*
D13*
X405130Y577190D03*
X405130Y558190D03*
X400050Y602640D03*
X400050Y621640D03*
D11*
X478130Y600710D03*
X459130Y600710D03*
X446430Y659130D03*
X465430Y659130D03*
X446380Y548640D03*
X427380Y548640D03*
D13*
X100965Y690000D03*
X100965Y707000D03*
X589280Y667410D03*
X589280Y686410D03*
X568960Y667410D03*
X568960Y686410D03*
D11*
X490830Y337820D03*
X471830Y337820D03*
X527964Y258572D03*
X546964Y258572D03*
X520090Y46990D03*
X539090Y46990D03*
D13*
X496570Y221640D03*
X496570Y240640D03*
D23*
X567740Y94370D03*
X574240Y94370D03*
X580740Y94370D03*
X580740Y111370D03*
X574240Y111370D03*
X567740Y111370D03*
D13*
X368300Y88290D03*
X368300Y107290D03*
X394970Y88290D03*
X394970Y107290D03*
X367030Y205130D03*
X367030Y224130D03*
X396240Y205130D03*
X396240Y224130D03*
X463550Y142900D03*
X463550Y161900D03*
X515620Y119990D03*
X515620Y100990D03*
D11*
X297790Y462280D03*
X278790Y462280D03*
D37*
X658110Y331670D03*
X658110Y356670D03*
D38*
X689610Y302170D03*
X689610Y386170D03*
D11*
X583590Y331470D03*
X602590Y331470D03*
X583590Y356870D03*
X602590Y356870D03*
D13*
X599440Y300330D03*
X599440Y281330D03*
D39*
X473710Y16510D03*
X473710Y753110D03*
X327660Y384810D03*
X619760Y384810D03*
D40*
X238500Y195460D03*
X238500Y190460D03*
X238500Y185460D03*
X238500Y180460D03*
X269500Y180460D03*
X269500Y185460D03*
X269500Y190460D03*
X269500Y195460D03*
D34*
X293370Y111330D03*
X302870Y89330D03*
X283870Y89330D03*
X203200Y111330D03*
X212700Y89330D03*
X193700Y89330D03*
X250190Y111330D03*
X259690Y89330D03*
X240690Y89330D03*
X213360Y169340D03*
X203860Y191340D03*
X222860Y191340D03*
D11*
X301870Y66040D03*
X284870Y66040D03*
X211700Y66040D03*
X194700Y66040D03*
D13*
X194310Y142630D03*
X194310Y159630D03*
D11*
X239640Y143510D03*
X222640Y143510D03*
D41*
X263900Y142630D03*
X263900Y159630D03*
X294900Y159630D03*
X294900Y142630D03*
D11*
X258690Y66040D03*
X241690Y66040D03*
X277470Y563880D03*
X258470Y563880D03*
D13*
X157480Y15900D03*
X157480Y34900D03*
X100330Y353670D03*
X100330Y334670D03*
X135890Y34900D03*
X135890Y15900D03*
D42*
X79250Y688090D03*
X79250Y711200D03*
X79250Y734310D03*
D43*
X17270Y711200D03*
D44*
X361760Y299752D03*
X368260Y299752D03*
X374760Y299752D03*
X381260Y299752D03*
X387760Y299752D03*
X394260Y299752D03*
X400760Y299752D03*
X407260Y299752D03*
X413760Y299752D03*
X420260Y299752D03*
X426760Y299752D03*
X433260Y299752D03*
X433260Y358108D03*
X426760Y358108D03*
X420260Y358108D03*
X413760Y358108D03*
X407260Y358108D03*
X400760Y358108D03*
X394260Y358108D03*
X387760Y358108D03*
X381260Y358108D03*
X374760Y358108D03*
X368260Y358108D03*
X361760Y358108D03*
D45*
X283210Y30480D02*
X283210Y15240D01*
X257810Y15240D02*
X257810Y30480D01*
X232410Y30480D02*
X232410Y15240D01*
X207010Y15240D02*
X207010Y30480D01*
X708660Y603250D02*
X723900Y603250D01*
X723900Y577850D02*
X708660Y577850D01*
X708660Y552450D02*
X723900Y552450D01*
X723900Y527050D02*
X708660Y527050D01*
D13*
X66675Y295250D03*
X66675Y276250D03*
X86995Y295250D03*
X86995Y276250D03*
D11*
G36*
X484678Y537405D02*
X474049Y526776D01*
X462006Y538819D01*
X472635Y549448D01*
X484678Y537405D01*
G37*
G36*
X498114Y550841D02*
X487485Y540212D01*
X475442Y552255D01*
X486071Y562884D01*
X498114Y550841D01*
G37*
D46*
X180975Y687705D03*
X165735Y687705D03*
X150495Y687705D03*
D13*
X119380Y712860D03*
X119380Y729860D03*
D47*
X72560Y785020D03*
X72560Y805020D03*
D48*
X20560Y761020D03*
X20560Y829020D03*
D49*
X641645Y631215D03*
X662645Y631215D03*
X662645Y650215D03*
X641645Y650215D03*
D13*
X640715Y668045D03*
X640715Y687045D03*
X91440Y766690D03*
X91440Y749690D03*
D26*
X669720Y727964D03*
X691720Y737464D03*
X691720Y718464D03*
D17*
X409800Y481490D03*
X403300Y481490D03*
X396800Y481490D03*
X390300Y481490D03*
X390300Y437990D03*
X396800Y437990D03*
X403300Y437990D03*
X409800Y437990D03*
D13*
X425450Y438048D03*
X425450Y457048D03*
D19*
X483002Y259994D03*
X483002Y278994D03*
X509122Y259994D03*
X509122Y269494D03*
X509122Y278994D03*
D50*
X472538Y319630D03*
X472538Y313130D03*
X472538Y306630D03*
X472538Y300130D03*
X516538Y300130D03*
X516538Y306630D03*
X516538Y313130D03*
X516538Y319630D03*
D13*
X466598Y257658D03*
X466598Y238658D03*
D11*
X354482Y438150D03*
X373482Y438150D03*
X355752Y498602D03*
X374752Y498602D03*
X374498Y519176D03*
X355498Y519176D03*
D13*
X355346Y478638D03*
X355346Y459638D03*
D26*
X669720Y668020D03*
X691720Y677520D03*
X691720Y658520D03*
D37*
X659380Y103670D03*
X659380Y128670D03*
X659380Y153670D03*
D38*
X690880Y74170D03*
X690880Y233170D03*
D37*
X659380Y178670D03*
X659380Y203670D03*
D13*
X508000Y773820D03*
X508000Y790820D03*
D51*
X5365Y607040D03*
X11965Y607040D03*
X18565Y607040D03*
X25165Y607040D03*
X31765Y607040D03*
X38365Y607040D03*
X44965Y607040D03*
X51565Y607040D03*
D52*
X58165Y607290D03*
X58165Y502690D03*
D51*
X51565Y502940D03*
X44965Y502940D03*
X38365Y502940D03*
X31765Y502940D03*
X25165Y502940D03*
X18565Y502940D03*
X11965Y502940D03*
X5365Y502940D03*
D53*
X64115Y597890D03*
X64115Y591290D03*
X64115Y584690D03*
X64115Y578090D03*
X64115Y571490D03*
X64115Y564890D03*
X64115Y558290D03*
X64115Y551690D03*
X64115Y545090D03*
X64115Y538490D03*
X64115Y531890D03*
X64115Y525290D03*
X64115Y518690D03*
X64115Y512090D03*
D54*
X10010Y104070D03*
X30010Y104070D03*
X50010Y104070D03*
X70010Y104070D03*
X90010Y104070D03*
X110010Y104070D03*
X130010Y104070D03*
X150010Y104070D03*
X150010Y254070D03*
X130010Y254070D03*
X110010Y254070D03*
X90010Y254070D03*
X70010Y254070D03*
X50010Y254070D03*
X30010Y254070D03*
X10010Y254070D03*
D55*
X165010Y129070D03*
X165010Y149070D03*
X165010Y169070D03*
X165010Y189070D03*
X165010Y209070D03*
X165010Y229070D03*
D37*
X146300Y607930D03*
X146300Y582930D03*
X146300Y557930D03*
D38*
X177800Y637430D03*
X177800Y528430D03*
D56*
X246380Y853440D03*
X32385Y805180D03*
X19685Y805815D03*
X302260Y866140D03*
X229870Y449580D03*
X189230Y190500D03*
X213995Y209550D03*
X187960Y120650D03*
X236220Y168910D03*
X300990Y400050D03*
X524510Y497840D03*
X544830Y674370D03*
X361950Y730250D03*
X180340Y31750D03*
X231140Y400685D03*
X260350Y290830D03*
X694690Y156210D03*
X226060Y85090D03*
X348615Y41910D03*
X640080Y704850D03*
X684530Y633095D03*
X181610Y746125D03*
X568960Y727710D03*
X568960Y716280D03*
X659130Y753110D03*
X671830Y753110D03*
D57*
X115960Y127000D03*
X537210Y529590D03*
X657860Y685800D03*
X657860Y613410D03*
X637540Y527050D03*
D56*
X36830Y524510D03*
X276860Y434340D03*
D57*
X250190Y201930D03*
D56*
X342900Y863600D03*
X236220Y678180D03*
X266700Y668020D03*
X174625Y15240D03*
X71755Y755015D03*
X60948Y651498D03*
X36595Y485160D03*
D57*
X537845Y513080D03*
X312420Y502920D03*
X287020Y414020D03*
X487680Y429260D03*
X477520Y486410D03*
D56*
X27940Y220980D03*
X78740Y462280D03*
X35560Y233680D03*
X124460Y436880D03*
X195580Y316230D03*
X252730Y317500D03*
D57*
X257810Y472440D03*
X255270Y382270D03*
X298450Y382270D03*
X257340Y472440D03*
X285750Y372110D03*
X250190Y372110D03*
X240030Y472440D03*
X346710Y346710D03*
X426720Y251460D03*
X312420Y299720D03*
X560070Y38100D03*
X293370Y179070D03*
X279400Y297180D03*
X245110Y222250D03*
X260350Y220980D03*
X715010Y657860D03*
X723686Y463550D03*
X270735Y243615D03*
X710184Y718058D03*
X723686Y371463D03*
X718820Y174244D03*
X231140Y250190D03*
X271780Y544830D03*
X312420Y604520D03*
X312420Y668020D03*
X355600Y165100D03*
X356870Y259715D03*
X349250Y183515D03*
X353695Y270510D03*
X354330Y140970D03*
X294640Y275590D03*
X486410Y523240D03*
X288290Y494030D03*
X122555Y662940D03*
X31750Y547370D03*
X107950Y152400D03*
X49530Y175260D03*
X110490Y76200D03*
X58420Y474980D03*
X124460Y397510D03*
X120650Y340360D03*
X120650Y322580D03*
X77470Y25400D03*
X93980Y25400D03*
X163830Y264160D03*
D56*
X544830Y770890D03*
X558800Y770890D03*
X474980Y38100D03*
X532130Y542290D03*
X347345Y636270D03*
X375920Y730250D03*
D57*
X433705Y324485D03*
D56*
X508000Y721360D03*
X520700Y721360D03*
X454660Y687070D03*
X383540Y647700D03*
D57*
X450850Y334010D03*
X364490Y325120D03*
D58*
X381000Y123825D03*
D57*
X342265Y96520D03*
D56*
X500380Y619125D03*
X400050Y459740D03*
X463550Y447040D03*
D57*
X80084Y614680D03*
X128270Y628650D03*
D56*
X86360Y316230D03*
X104140Y386080D03*
X57150Y688340D03*
X44450Y688340D03*
X105410Y629920D03*
X142240Y144780D03*
X44965Y585450D03*
X109735Y520680D03*
D57*
X57150Y234950D03*
X158750Y303530D03*
X228600Y280670D03*
X491490Y725170D03*
X19050Y478790D03*
X158750Y341630D03*
X346075Y299720D03*
D56*
X134620Y304800D03*
X271780Y591820D03*
X535940Y617220D03*
D57*
X236220Y365760D03*
X289560Y359410D03*
X314643Y353060D03*
X76200Y234950D03*
X355918Y288290D03*
X135960Y127000D03*
X575310Y544830D03*
X331470Y826770D03*
X513080Y660400D03*
X348615Y676275D03*
X87630Y212090D03*
X168936Y243840D03*
X16510Y150495D03*
X16510Y385445D03*
X231140Y814070D03*
X284480Y863600D03*
X284480Y814070D03*
D56*
X459740Y802640D03*
X459740Y778510D03*
D57*
X382270Y669290D03*
X591820Y519430D03*
X574040Y771525D03*
D56*
X480060Y773430D03*
X200660Y209550D03*
X200660Y287020D03*
X236220Y293370D03*
X210820Y347980D03*
X293370Y562610D03*
X237490Y208280D03*
X272415Y207645D03*
X294640Y431800D03*
X100965Y730885D03*
X298450Y656590D03*
X297180Y533400D03*
D57*
X588645Y633730D03*
X340995Y608965D03*
X688340Y696976D03*
X577850Y517652D03*
X575310Y303022D03*
X290830Y722630D03*
X273050Y480060D03*
X501650Y581660D03*
X387985Y558165D03*
X637540Y603250D03*
X563880Y605790D03*
X435610Y605790D03*
X455930Y302260D03*
X406400Y414020D03*
X508000Y416560D03*
X527050Y289560D03*
X469900Y281940D03*
X525780Y274320D03*
X450850Y361950D03*
X561340Y252476D03*
X598805Y213360D03*
X698500Y181610D03*
X570230Y244856D03*
X425450Y398780D03*
X439420Y264160D03*
X593090Y194310D03*
X463550Y125730D03*
X528320Y167640D03*
X560070Y144780D03*
X590550Y595630D03*
X721360Y137160D03*
X725170Y482600D03*
X637540Y582295D03*
D56*
X410210Y88290D03*
X381635Y224765D03*
D57*
X574040Y127000D03*
X466090Y214630D03*
X567690Y412750D03*
X694055Y488315D03*
X596900Y81280D03*
X695960Y127000D03*
X584200Y146050D03*
X553720Y168910D03*
X483870Y111760D03*
X463550Y111760D03*
X402590Y271780D03*
X378460Y269240D03*
X389255Y316865D03*
X463550Y195580D03*
X546100Y589280D03*
X214630Y124460D03*
X264160Y171450D03*
X638810Y817880D03*
X684530Y356870D03*
X478790Y499110D03*
X554990Y83820D03*
X542290Y196850D03*
X542290Y107950D03*
X542290Y162560D03*
X372110Y455930D03*
X511810Y631190D03*
X511810Y547370D03*
X95960Y127000D03*
X435610Y786130D03*
X224155Y509905D03*
X227330Y383540D03*
X463550Y562610D03*
X495300Y46990D03*
X368300Y372110D03*
X353060Y311150D03*
X508000Y330200D03*
X501650Y167640D03*
X481330Y222250D03*
X448310Y824230D03*
X358140Y608330D03*
X358140Y575310D03*
X342265Y114935D03*
X574040Y60325D03*
X434340Y230505D03*
X400050Y189865D03*
D58*
X342265Y158750D03*
D57*
X458470Y275590D03*
X444500Y295910D03*
X440690Y438150D03*
X417616Y318633D03*
X423672Y377444D03*
X591820Y119380D03*
X394970Y247650D03*
X209550Y838200D03*
X238760Y760095D03*
X375920Y481330D03*
X427990Y481330D03*
X461010Y416560D03*
D56*
X104140Y557530D03*
X161290Y386080D03*
X133350Y189230D03*
M02*
