G04 EAGLE Gerber RS-274X export*
G75*
%MOMM*%
%FSLAX34Y34*%
%LPD*%
%INSoldermask Bottom*%
%IPPOS*%
%AMOC8*
5,1,8,0,0,1.08239X$1,22.5*%
G01*
%ADD10C,3.403200*%
%ADD11C,0.903200*%
%ADD12C,1.853200*%
%ADD13C,1.727200*%
%ADD14C,1.209600*%
%ADD15C,1.109600*%
%ADD16C,0.959600*%


D10*
X25400Y25400D03*
X711200Y25400D03*
X711200Y863600D03*
X25400Y863600D03*
D11*
X142670Y840370D03*
X101170Y840370D03*
D12*
X473710Y16510D03*
X473710Y753110D03*
X327660Y384810D03*
X619760Y384810D03*
D13*
X283210Y30480D02*
X283210Y15240D01*
X257810Y15240D02*
X257810Y30480D01*
X232410Y30480D02*
X232410Y15240D01*
X207010Y15240D02*
X207010Y30480D01*
X708660Y603250D02*
X723900Y603250D01*
X723900Y577850D02*
X708660Y577850D01*
X708660Y552450D02*
X723900Y552450D01*
X723900Y527050D02*
X708660Y527050D01*
D14*
X246380Y853440D03*
X32385Y805180D03*
X19685Y805815D03*
X302260Y866140D03*
X229870Y449580D03*
X189230Y190500D03*
X213995Y209550D03*
X187960Y120650D03*
X236220Y168910D03*
X300990Y400050D03*
X524510Y497840D03*
X544830Y674370D03*
X361950Y730250D03*
X180340Y31750D03*
X231140Y400685D03*
X260350Y290830D03*
X694690Y156210D03*
X226060Y85090D03*
X348615Y41910D03*
X640080Y704850D03*
X684530Y633095D03*
X181610Y746125D03*
X568960Y727710D03*
X568960Y716280D03*
X659130Y753110D03*
X671830Y753110D03*
D15*
X115960Y127000D03*
X537210Y529590D03*
X657860Y685800D03*
X657860Y613410D03*
X637540Y527050D03*
D14*
X36830Y524510D03*
X276860Y434340D03*
D15*
X250190Y201930D03*
D14*
X342900Y863600D03*
X236220Y678180D03*
X266700Y668020D03*
X174625Y15240D03*
X71755Y755015D03*
X60948Y651498D03*
X36595Y485160D03*
D15*
X537845Y513080D03*
X312420Y502920D03*
X287020Y414020D03*
X487680Y429260D03*
X477520Y486410D03*
D14*
X27940Y220980D03*
X78740Y462280D03*
X35560Y233680D03*
X124460Y436880D03*
X195580Y316230D03*
X252730Y317500D03*
D15*
X257810Y472440D03*
X255270Y382270D03*
X298450Y382270D03*
X257340Y472440D03*
X285750Y372110D03*
X250190Y372110D03*
X240030Y472440D03*
X346710Y346710D03*
X426720Y251460D03*
X312420Y299720D03*
X560070Y38100D03*
X293370Y179070D03*
X279400Y297180D03*
X245110Y222250D03*
X260350Y220980D03*
X715010Y657860D03*
X723686Y463550D03*
X270735Y243615D03*
X710184Y718058D03*
X723686Y371463D03*
X718820Y174244D03*
X231140Y250190D03*
X271780Y544830D03*
X312420Y604520D03*
X312420Y668020D03*
X355600Y165100D03*
X356870Y259715D03*
X349250Y183515D03*
X353695Y270510D03*
X354330Y140970D03*
X294640Y275590D03*
X486410Y523240D03*
X288290Y494030D03*
X122555Y662940D03*
X31750Y547370D03*
X107950Y152400D03*
X49530Y175260D03*
X110490Y76200D03*
X58420Y474980D03*
X124460Y397510D03*
X120650Y340360D03*
X120650Y322580D03*
X77470Y25400D03*
X93980Y25400D03*
X163830Y264160D03*
D14*
X544830Y770890D03*
X558800Y770890D03*
X474980Y38100D03*
X532130Y542290D03*
X347345Y636270D03*
X375920Y730250D03*
D15*
X433705Y324485D03*
D14*
X508000Y721360D03*
X520700Y721360D03*
X454660Y687070D03*
X383540Y647700D03*
D15*
X450850Y334010D03*
X364490Y325120D03*
D16*
X381000Y123825D03*
D15*
X342265Y96520D03*
D14*
X500380Y619125D03*
X400050Y459740D03*
X463550Y447040D03*
D15*
X80084Y614680D03*
X128270Y628650D03*
D14*
X86360Y316230D03*
X104140Y386080D03*
X57150Y688340D03*
X44450Y688340D03*
X105410Y629920D03*
X142240Y144780D03*
X44965Y585450D03*
X109735Y520680D03*
D15*
X57150Y234950D03*
X158750Y303530D03*
X228600Y280670D03*
X491490Y725170D03*
X19050Y478790D03*
X158750Y341630D03*
X346075Y299720D03*
D14*
X134620Y304800D03*
X271780Y591820D03*
X535940Y617220D03*
D15*
X236220Y365760D03*
X289560Y359410D03*
X314643Y353060D03*
X76200Y234950D03*
X355918Y288290D03*
X135960Y127000D03*
X575310Y544830D03*
X331470Y826770D03*
X513080Y660400D03*
X348615Y676275D03*
X87630Y212090D03*
X168936Y243840D03*
X16510Y150495D03*
X16510Y385445D03*
X231140Y814070D03*
X284480Y863600D03*
X284480Y814070D03*
D14*
X459740Y802640D03*
X459740Y778510D03*
D15*
X382270Y669290D03*
X591820Y519430D03*
X574040Y771525D03*
D14*
X480060Y773430D03*
X200660Y209550D03*
X200660Y287020D03*
X236220Y293370D03*
X210820Y347980D03*
X293370Y562610D03*
X237490Y208280D03*
X272415Y207645D03*
X294640Y431800D03*
X100965Y730885D03*
X298450Y656590D03*
X297180Y533400D03*
D15*
X588645Y633730D03*
X340995Y608965D03*
X688340Y696976D03*
X577850Y517652D03*
X575310Y303022D03*
X290830Y722630D03*
X273050Y480060D03*
X501650Y581660D03*
X387985Y558165D03*
X637540Y603250D03*
X563880Y605790D03*
X435610Y605790D03*
X455930Y302260D03*
X406400Y414020D03*
X508000Y416560D03*
X527050Y289560D03*
X469900Y281940D03*
X525780Y274320D03*
X450850Y361950D03*
X561340Y252476D03*
X598805Y213360D03*
X698500Y181610D03*
X570230Y244856D03*
X425450Y398780D03*
X439420Y264160D03*
X593090Y194310D03*
X463550Y125730D03*
X528320Y167640D03*
X560070Y144780D03*
X590550Y595630D03*
X721360Y137160D03*
X725170Y482600D03*
X637540Y582295D03*
D14*
X410210Y88290D03*
X381635Y224765D03*
D15*
X574040Y127000D03*
X466090Y214630D03*
X567690Y412750D03*
X694055Y488315D03*
X596900Y81280D03*
X695960Y127000D03*
X584200Y146050D03*
X553720Y168910D03*
X483870Y111760D03*
X463550Y111760D03*
X402590Y271780D03*
X378460Y269240D03*
X389255Y316865D03*
X463550Y195580D03*
X546100Y589280D03*
X214630Y124460D03*
X264160Y171450D03*
X638810Y817880D03*
X684530Y356870D03*
X478790Y499110D03*
X554990Y83820D03*
X542290Y196850D03*
X542290Y107950D03*
X542290Y162560D03*
X372110Y455930D03*
X511810Y631190D03*
X511810Y547370D03*
X95960Y127000D03*
X435610Y786130D03*
X224155Y509905D03*
X227330Y383540D03*
X463550Y562610D03*
X495300Y46990D03*
X368300Y372110D03*
X353060Y311150D03*
X508000Y330200D03*
X501650Y167640D03*
X481330Y222250D03*
X448310Y824230D03*
X358140Y608330D03*
X358140Y575310D03*
X342265Y114935D03*
X574040Y60325D03*
X434340Y230505D03*
X400050Y189865D03*
D16*
X342265Y158750D03*
D15*
X458470Y275590D03*
X444500Y295910D03*
X440690Y438150D03*
X417616Y318633D03*
X423672Y377444D03*
X591820Y119380D03*
X394970Y247650D03*
X209550Y838200D03*
X238760Y760095D03*
X375920Y481330D03*
X427990Y481330D03*
X461010Y416560D03*
D14*
X104140Y557530D03*
X161290Y386080D03*
X133350Y189230D03*
M02*
